<?xml version="1.0" encoding="utf-8"?>
<!-- Generator: Adobe Illustrator 25.0.1, SVG Export Plug-In . SVG Version: 6.00 Build 0)  -->
<svg version="1.1" id="Layer_1" xmlns="http://www.w3.org/2000/svg" xmlns:xlink="http://www.w3.org/1999/xlink" x="0px" y="0px"
	 viewBox="0 0 240 240" style="enable-background:new 0 0 240 240; transform: scale(.5);" xml:space="preserve">
<style type="text/css">
	.st0{fill:#D3D3D3;}
	.st1{fill:none;stroke:#2B56A6;stroke-miterlimit:10;}
	.st2{fill:#57C4C7;stroke:#2B56A6;stroke-miterlimit:10;}
</style>
<g>
	<g id="OUTLINE">
		<path class="st0" d="M16.8,76.1c-1.2,2.2-0.5,5.3,1.5,6.9l72.9,56.7c2,1.6,5.7,3,8.2,3.2l6,0.5c2.5,0.2,3,1.7,1,3.3l-10.5,8.7
			c-2,1.6-2,4.3-0.1,6l35.6,31.4c1.9,1.7,5,1.6,6.8-0.1l22.4-20.8c1.9-1.7,2-4.7,0.2-6.5l-4.5-4.9c-1.7-1.9-1.9-5-0.3-7l4.3-5.5
			c1.6-2,4.9-3.3,7.4-3l9.6,1.4c2.5,0.4,5.7-1.1,7.2-3.2l19-27.7c1.4-2.1,0.8-4.8-1.4-6l-11.8-6.5c-2.2-1.2-3.7-3.2-3.3-4.3
			s2.8-1.9,5.3-1.7l26,2.2c2.5,0.2,4.7-1.7,4.9-4.2l1.8-23.4c0.2-2.5-1.6-5.2-4-6l-62.7-20c-2.4-0.8-5,0.6-5.6,3l-6.9,24.2
			c-0.7,2.4-3.2,5.1-5.6,5.8L99.2,91.5c-2.4,0.8-6.3,0.6-8.6-0.5L28.4,64c-2.3-1-5.2,0-6.4,2.2L16.8,76.1z"/>
		<path class="st1" d="M16.8,76.1c-1.2,2.2-0.5,5.3,1.5,6.9l72.9,56.7c2,1.6,5.7,3,8.2,3.2l6,0.5c2.5,0.2,3,1.7,1,3.3l-10.5,8.7
			c-2,1.6-2,4.3-0.1,6l35.6,31.4c1.9,1.7,5,1.6,6.8-0.1l22.4-20.8c1.9-1.7,2-4.7,0.2-6.5l-4.5-4.9c-1.7-1.9-1.9-5-0.3-7l4.3-5.5
			c1.6-2,4.9-3.3,7.4-3l9.6,1.4c2.5,0.4,5.7-1.1,7.2-3.2l19-27.7c1.4-2.1,0.8-4.8-1.4-6l-11.8-6.5c-2.2-1.2-3.7-3.2-3.3-4.3
			s2.8-1.9,5.3-1.7l26,2.2c2.5,0.2,4.7-1.7,4.9-4.2l1.8-23.4c0.2-2.5-1.6-5.2-4-6l-62.7-20c-2.4-0.8-5,0.6-5.6,3l-6.9,24.2
			c-0.7,2.4-3.2,5.1-5.6,5.8L99.2,91.5c-2.4,0.8-6.3,0.6-8.6-0.5L28.4,64c-2.3-1-5.2,0-6.4,2.2L16.8,76.1z"/>
	</g>
	<path id="EYE" class="st2" d="M176.6,75.5c0,2.5,2.1,4.6,4.6,4.6c2.5,0,4.6-2.1,4.6-4.6c0-2.5-2.1-4.6-4.6-4.6
		C178.6,70.9,176.6,72.9,176.6,75.5z"/>
	<g id="BODY">
		<line class="st1" x1="143.1" y1="125.3" x2="167.4" y2="118"/>
		<polyline class="st1" points="153.4,110 146.5,149 124.2,163.1 140.8,176.4 		"/>
		<line class="st1" x1="124.2" y1="157" x2="143.2" y2="173"/>
		<line class="st1" x1="129.9" y1="152.6" x2="147.9" y2="170.3"/>
		<polyline class="st1" points="128.7,117.3 132.3,141.7 110.2,158.7 124.2,173 		"/>
		<line class="st1" x1="165.1" y1="133.8" x2="172" y2="117.8"/>
		<line class="st1" x1="167.7" y1="135.6" x2="175" y2="119.8"/>
		<line class="st1" x1="170.1" y1="75.5" x2="216.3" y2="82.9"/>
		<line class="st1" x1="161.2" y1="113.5" x2="176.6" y2="123.6"/>
		<polyline class="st1" points="178.7,131.9 190.7,115.7 170.4,104.4 176.5,85 210.4,86.7 210.4,73.3 162.9,59.8 154,86 97.3,107.7 
			31.4,77.5 104.9,132.6 124.2,129.2 		"/>
	</g>
</g>
</svg>
