<?xml version="1.0" encoding="utf-8"?>
<!-- Generator: Adobe Illustrator 24.2.1, SVG Export Plug-In . SVG Version: 6.00 Build 0)  -->
<svg version="1.1" id="Layer_1" xmlns="http://www.w3.org/2000/svg" xmlns:xlink="http://www.w3.org/1999/xlink" x="0px" y="0px"
	 viewBox="0 0 50 50" style="enable-background:new 0 0 50 50;" xml:space="preserve">
<style type="text/css">
	.st0{fill:#D3D3D3;}
	.st1{fill:none;stroke:#2B56A6;stroke-width:0.2381;stroke-miterlimit:10;}
	.st2{fill:#57C4C7;stroke:#2B56A6;stroke-width:0.2381;stroke-miterlimit:10;}
</style>
<g>
	<g id="OUTLINE">
		<path class="st0" d="M0.3,14.6c-0.3,0.5-0.1,1.3,0.4,1.6L18,29.8c0.5,0.4,1.4,0.7,2,0.8l1.4,0.1c0.6,0,0.7,0.4,0.2,0.8l-2.5,2.1
			c-0.5,0.4-0.5,1,0,1.4l8.5,7.5c0.5,0.4,1.2,0.4,1.6,0l5.3-5c0.5-0.4,0.5-1.1,0-1.5l-1.1-1.2c-0.4-0.5-0.5-1.2-0.1-1.7l1-1.3
			c0.4-0.5,1.2-0.8,1.8-0.7l2.3,0.3c0.6,0.1,1.4-0.3,1.7-0.8l4.5-6.6c0.3-0.5,0.2-1.1-0.3-1.4L41.6,21c-0.5-0.3-0.9-0.8-0.8-1
			c0.1-0.3,0.7-0.5,1.3-0.4l6.2,0.5c0.6,0,1.1-0.4,1.2-1l0.4-5.6c0-0.6-0.4-1.2-1-1.4L34,7.4c-0.6-0.2-1.2,0.1-1.3,0.7L31,13.8
			c-0.2,0.6-0.8,1.2-1.3,1.4l-9.8,3.1c-0.6,0.2-1.5,0.1-2-0.1L3,11.7c-0.5-0.2-1.2,0-1.5,0.5L0.3,14.6z"/>
		<path class="st1" d="M0.3,14.6c-0.3,0.5-0.1,1.3,0.4,1.6L18,29.8c0.5,0.4,1.4,0.7,2,0.8l1.4,0.1c0.6,0,0.7,0.4,0.2,0.8l-2.5,2.1
			c-0.5,0.4-0.5,1,0,1.4l8.5,7.5c0.5,0.4,1.2,0.4,1.6,0l5.3-5c0.5-0.4,0.5-1.1,0-1.5l-1.1-1.2c-0.4-0.5-0.5-1.2-0.1-1.7l1-1.3
			c0.4-0.5,1.2-0.8,1.8-0.7l2.3,0.3c0.6,0.1,1.4-0.3,1.7-0.8l4.5-6.6c0.3-0.5,0.2-1.1-0.3-1.4L41.6,21c-0.5-0.3-0.9-0.8-0.8-1
			c0.1-0.3,0.7-0.5,1.3-0.4l6.2,0.5c0.6,0,1.1-0.4,1.2-1l0.4-5.6c0-0.6-0.4-1.2-1-1.4L34,7.4c-0.6-0.2-1.2,0.1-1.3,0.7L31,13.8
			c-0.2,0.6-0.8,1.2-1.3,1.4l-9.8,3.1c-0.6,0.2-1.5,0.1-2-0.1L3,11.7c-0.5-0.2-1.2,0-1.5,0.5L0.3,14.6z"/>
	</g>
	<path id="EYE" class="st2" d="M38.3,14.5c0,0.6,0.5,1.1,1.1,1.1c0.6,0,1.1-0.5,1.1-1.1s-0.5-1.1-1.1-1.1
		C38.8,13.4,38.3,13.9,38.3,14.5z"/>
	<g id="BODY">
		<line class="st1" x1="30.4" y1="26.3" x2="36.1" y2="24.6"/>
		<polyline class="st1" points="32.8,22.7 31.2,32 25.9,35.3 29.8,38.5 		"/>
		<line class="st1" x1="25.9" y1="33.9" x2="30.4" y2="37.7"/>
		<line class="st1" x1="27.2" y1="32.8" x2="31.5" y2="37"/>
		<polyline class="st1" points="26.9,24.4 27.8,30.2 22.5,34.3 25.9,37.7 		"/>
		<line class="st1" x1="35.6" y1="28.4" x2="37.2" y2="24.5"/>
		<line class="st1" x1="36.2" y1="28.8" x2="38" y2="25"/>
		<line class="st1" x1="36.8" y1="14.5" x2="47.8" y2="16.2"/>
		<line class="st1" x1="34.7" y1="23.5" x2="38.3" y2="25.9"/>
		<polyline class="st1" points="38.8,27.9 41.7,24 36.9,21.4 38.3,16.7 46.4,17.1 46.4,14 35.1,10.7 32.9,17 19.4,22.1 3.8,15 
			21.3,28.1 25.9,27.3 		"/>
	</g>
</g>
</svg>
